<?xml version="1.0" encoding="UTF-8" standalone="no"?>
<!DOCTYPE svg PUBLIC "-//W3C//DTD SVG 20010904//EN"
              "http://www.w3.org/TR/2001/REC-SVG-20010904/DTD/svg10.dtd">

<svg xmlns="http://www.w3.org/2000/svg"
     width="3.47222in" height="3.47222in"
     viewBox="0 0 250 250">
  <path id="N"
        fill="none" stroke="black" stroke-width="1"
        d="M 15.00,26.00
           C 14.67,8.67 31.00,1.50 36.50,1.00
             31.75,0.50 23.50,1.50 14.00,7.00
             4.50,12.50 1.50,1.75 1.00,1.75
             0.50,1.75 2.50,8.50 6.00,12.75
             8.25,15.50 8.00,17.25 7.25,21.50
             6.50,24.50 6.00,30.00 12.00,42.00
             14.00,46.00 14.75,49.25 11.50,50.75
             8.00,52.33 8.25,51.00 3.00,53.75
             8.25,52.50 20.00,53.25 26.50,65.00
             34.25,79.75 29.75,89.75 23.00,97.50
             17.50,103.75 10.50,104.25 2.25,102.50
             7.25,104.75 8.50,105.75 11.00,109.50
             12.67,112.12 9.25,123.00 7.50,125.50
             5.00,129.00 -0.25,137.50 0.25,147.50
             1.25,143.00 3.25,139.25 8.50,140.00
             11.50,140.50 16.06,154.06 27.00,154.50
             16.75,152.25 11.25,131.25 15.00,121.50
             28.33,92.67 75.50,108.50 54.33,153.67
             52.67,157.33 52.33,168.00 51.50,171.00
             48.75,182.00 32.50,183.50 28.00,169.50
             28.50,176.00 29.50,178.25 31.00,181.00
             32.25,183.50 30.33,188.67 26.50,189.00
             24.00,189.33 21.75,188.25 17.50,185.00
             18.75,189.00 21.75,187.75 21.75,193.00
             21.67,195.00 19.33,201.67 20.25,207.50
             21.75,216.50 17.25,220.25 11.50,220.50
             17.00,222.50 22.00,219.25 24.50,216.50
             26.25,214.75 28.25,214.00 35.00,220.75
             30.75,213.75 23.33,207.33 24.00,203.00
             25.00,197.67 32.67,191.00 40.00,191.00
             50.00,191.00 52.67,198.00 56.00,203.00
             60.75,210.25 62.00,212.00 64.50,218.50
             67.50,226.00 63.00,230.50 60.25,236.25
             58.67,239.00 57.50,244.50 57.75,248.75
             59.25,243.75 60.00,237.75 76.50,232.00
             87.75,228.25 104.25,235.25 109.00,248.25
             108.50,237.25 83.50,220.00 81.00,216.50
             78.33,212.33 78.50,208.50 82.50,205.50
             86.00,203.25 89.75,204.25 92.25,205.00
             88.50,202.00 84.33,202.67 77.25,202.00
             69.67,201.00 65.75,192.00 65.50,182.00
             65.50,177.25 67.00,163.67 69.33,160.33
             72.00,156.25 85.33,158.00 86.00,168.50
             86.50,181.50 79.00,179.00 87.00,191.00
             84.50,186.25 84.25,181.00 87.50,178.50
             89.33,177.33 92.75,178.25 96.00,181.00
             100.00,184.50 100.50,187.25 102.50,193.50
             101.00,186.25 98.75,181.75 109.25,180.75
             99.75,179.00 99.67,179.67 91.53,172.29
             88.50,169.75 91.00,163.67 93.50,161.50
             96.75,158.50 101.00,161.75 106.50,155.00
             102.45,157.38 94.54,160.22 84.07,152.04
             81.00,149.67 73.00,134.25 77.25,120.75
             82.00,109.00 96.99,105.67 106.50,109.00
             116.25,113.00 125.00,120.25 130.50,134.50
             134.50,145.75 133.00,154.25 132.00,157.50
             130.25,164.25 124.00,164.75 123.75,172.50
             125.59,166.76 133.75,163.13 137.20,169.16
             142.25,179.00 131.50,180.00 126.50,176.25
             129.25,184.25 132.00,182.25 143.25,182.25
             154.25,182.25 158.75,190.50 159.00,197.50
             159.00,206.50 154.00,209.25 146.50,210.50
             132.73,212.67 122.75,215.25 118.50,208.50
             119.25,211.25 122.00,215.50 118.50,218.00
             116.75,219.50 115.75,222.50 115.50,225.50
             118.75,219.25 136.50,216.00 140.33,218.67
             144.17,222.00 146.00,225.00 147.00,232.50
             147.75,239.50 150.00,245.50 156.50,249.00
             151.75,242.25 149.25,232.75 158.00,221.75
             168.19,209.62 183.25,212.50 189.50,215.50
             199.00,220.25 200.00,227.25 201.50,235.00
             203.25,244.00 203.50,245.25 207.00,248.00
             203.75,241.50 206.75,234.75 215.25,227.00
             221.00,223.00 230.75,222.25 236.00,225.00
             242.00,228.25 243.75,229.25 248.50,228.50
             242.25,226.50 233.50,218.25 232.50,211.00
             227.50,170.50 230.50,155.00 231.00,133.50
             231.00,129.75 246.25,121.00 249.50,135.50
             249.25,125.25 243.25,123.25 239.50,121.50
             233.50,118.50 234.50,111.00 238.50,108.00
             242.50,105.00 244.00,101.50 242.50,96.00
             241.25,100.50 239.25,104.00 233.00,104.00
             224.00,103.75 221.25,98.00 221.50,90.50
             221.75,83.75 231.50,82.50 235.50,82.50
             241.50,82.50 242.50,90.25 243.50,91.50
             243.00,83.25 244.25,78.25 250.00,78.75
             249.53,78.48 246.07,76.81 238.50,77.50
             233.25,77.75 222.25,75.00 218.00,61.75
             215.75,54.75 220.00,44.25 226.00,39.50
             232.75,34.25 241.50,33.50 247.75,37.50
             243.00,33.00 236.25,30.00 242.25,25.75
             246.25,23.00 246.75,23.50 249.00,17.75
             246.75,22.00 241.50,24.00 236.50,21.00
             230.50,17.50 231.00,2.33 218.00,3.00
             224.75,5.50 227.33,11.00 224.67,21.33
             222.00,31.67 213.25,32.75 209.00,33.00
             198.25,32.50 191.75,27.25 191.67,19.67
             192.33,4.00 197.33,3.33 202.00,1.33
             195.67,1.00 193.67,2.33 189.33,5.33
             185.25,8.00 182.50,5.50 180.67,4.33
             178.50,2.50 173.82,2.60 168.00,4.00
             174.25,3.50 178.75,5.00 182.33,10.33
             186.33,16.33 184.75,13.25 186.33,23.33
             187.00,27.75 189.67,33.67 192.67,37.33
             195.25,40.25 196.00,43.33 194.33,47.33
             192.75,50.50 187.50,62.75 176.25,59.75
             186.75,65.00 190.00,59.50 197.00,62.25
             201.75,64.12 207.00,68.25 208.00,71.75
             209.50,77.00 210.00,83.00 208.25,88.75
             204.25,99.75 198.75,99.50 194.75,100.50
             188.50,102.00 172.75,102.25 170.25,83.50
             171.00,98.50 176.50,101.25 178.75,103.00
             181.50,105.25 184.50,106.00 184.75,109.25
             185.25,113.50 185.25,114.50 187.50,117.00
             187.75,111.75 187.25,109.50 193.50,106.25
             199.75,103.00 205.75,104.50 209.00,108.50
             212.25,112.50 214.75,114.75 215.75,120.25
             217.00,127.50 219.50,155.00 215.25,192.00
             214.25,201.50 201.50,205.25 194.75,205.25
             188.00,205.25 167.50,198.75 174.25,183.00
             180.88,169.53 193.25,172.25 197.40,175.19
             195.75,172.00 193.25,171.00 191.00,168.50
             187.00,163.50 188.25,159.25 191.50,156.50
             186.00,157.50 184.00,163.75 182.00,165.50
             180.00,167.25 179.50,169.75 173.25,172.25
             167.00,174.75 161.75,177.50 154.50,172.00
             151.50,169.75 146.50,164.75 145.50,160.50
             144.25,152.50 144.25,145.50 145.50,140.50
             147.25,134.50 153.50,133.25 156.50,133.25
             160.00,133.50 164.00,135.00 166.00,141.00
             168.00,147.00 167.25,152.00 158.25,155.75
             165.75,154.50 171.00,150.50 172.00,140.00
             173.00,129.50 182.50,130.00 187.50,133.25
             184.75,128.50 179.50,127.25 170.25,131.00
             166.00,132.75 163.25,128.50 160.00,126.50
             157.25,124.75 152.75,125.00 149.00,123.75
             143.67,122.00 142.67,119.33 142.33,116.00
             142.00,113.25 141.67,110.00 146.50,105.75
             151.25,101.00 153.75,94.25 152.25,89.00
             150.50,96.00 144.25,100.00 141.25,101.25
             131.75,105.00 123.75,104.75 114.25,97.50
             102.50,87.50 105.00,70.00 115.25,61.00
             126.00,52.25 148.75,53.75 153.00,70.75
             154.75,57.75 145.75,51.25 141.00,49.00
             133.25,45.00 135.25,34.25 138.00,33.25
             143.00,31.25 148.00,32.75 150.25,34.25
             152.50,35.75 154.25,36.50 156.75,36.25
             160.25,36.00 163.25,35.50 166.75,39.25
             170.25,43.00 168.75,47.25 168.75,47.75
             168.75,48.25 172.00,39.75 170.25,38.25
             167.25,35.75 165.75,32.75 167.00,24.75
             161.50,35.50 149.75,29.00 149.00,25.00
             147.67,18.67 149.25,16.50 147.25,12.50
             147.75,18.75 142.00,22.25 139.00,23.50
             125.50,30.00 118.00,41.25 114.25,44.25
             108.50,49.00 92.00,53.25 83.25,45.25
             74.75,36.50 73.00,22.75 77.25,14.75
             79.50,10.50 81.25,5.25 93.75,3.00
             85.50,0.75 77.25,4.50 75.50,7.00
             72.00,12.00 67.75,12.25 63.50,5.75
             62.00,3.25 61.25,1.50 56.75,0.50
             59.00,2.00 62.25,5.25 62.75,11.75
             63.47,24.06 64.25,32.25 61.25,37.00
             54.25,47.25 45.25,51.00 33.67,50.67
             27.50,50.50 15.67,44.67 15.00,26.00 Z" />
</svg>
